<?xml version="1.0" encoding="UTF-8"?>
<svg width="155px" height="32px" viewBox="0 0 155 32" version="1.1" xmlns="http://www.w3.org/2000/svg" xmlns:xlink="http://www.w3.org/1999/xlink">
    <!-- Generator: sketchtool 55.2 (78181) - https://sketchapp.com -->
    <title>7C4FB429-CB8A-44CB-AF79-CEFA8B7CC313</title>
    <desc>Created with sketchtool.</desc>
    <g id="Page-1" stroke="none" stroke-width="1" fill="none" fill-rule="evenodd">
        <g id="VW-DSN-Mobile-375-Login" transform="translate(-110.000000, -56.000000)" fill-rule="nonzero">
            <g id="ui/navigation/mobile-VW-AG" transform="translate(0.000000, 40.000000)">
                <g id="brand-logo/VW-AG" transform="translate(110.000000, 16.000000)">
                    <g id="VW-AG-Logo">
                        <polygon id="Path" fill="#000000" points="121.317565 28.0979999 121.317565 31.8426666 120.741659 31.8426666 120.741659 28.0979999 119.525711 28.0979999 119.525711 27.6159999 122.538189 27.6159999 122.538189 28.0979999"></polygon>
                        <polygon id="Path" fill="#000000" points="116.30211 28.0919999 116.30211 29.4693332 117.993079 29.4693332 117.993079 29.9326666 116.30211 29.9326666 116.30211 31.8426666 115.725536 31.8426666 115.725536 27.6159999 118.099976 27.6159999 118.099976 28.0919999"></polygon>
                        <path d="M113.260537,31.8423643 L112.91569,30.8342855 L111.118762,30.8342855 L110.76745,31.8423643 L110.178828,31.8423643 L111.694611,27.6158422 L112.395817,27.6158422 L113.90545,31.8423643 L113.260537,31.8423643 Z M112.202185,28.7555467 C112.132963,28.5492019 112.076829,28.3485319 112.020222,28.1607881 L112.014388,28.1607881 C111.964245,28.3485319 111.901173,28.5493595 111.838889,28.7493989 L111.262409,30.3771427 L112.778192,30.3771427 L112.202185,28.7555467 Z" id="Shape" fill="#000000"></path>
                        <polygon id="Path" fill="#000000" points="107.73235 31.8426666 107.73235 29.8953332 105.577716 29.8953332 105.577716 31.8426666 105.001811 31.8426666 105.001811 27.6159999 105.577716 27.6159999 105.577716 29.4066666 107.73235 29.4066666 107.73235 27.6159999 108.308255 27.6159999 108.308255 31.8426666"></polygon>
                        <path d="M102.692624,31.7235087 C102.348251,31.8239226 101.959883,31.892494 101.546603,31.892494 C100.225081,31.892494 99.6550662,31.0409471 99.6550662,29.8266811 C99.6550662,28.5427402 100.299822,27.578484 101.690092,27.578484 C102.016175,27.578484 102.354084,27.6286121 102.642325,27.7225628 L102.642325,28.2924151 C102.303942,28.1483363 101.95326,28.0731441 101.615351,28.0731441 C100.675417,28.0731441 100.274593,28.8244347 100.274593,29.7634693 C100.274593,30.790622 100.732025,31.3792329 101.652722,31.3792329 C101.965875,31.3792329 102.366857,31.3101885 102.692467,31.2102477 L102.692467,31.7235087 L102.692624,31.7235087 Z M97.1769583,28.1483362 C96.9511601,28.0855973 96.6570856,28.0356268 96.4126807,28.0356268 C95.8489731,28.0356268 95.5544257,28.2733412 95.5544257,28.6680604 C95.5544257,29.594484 97.5025692,29.2689668 97.5025692,30.6653017 C97.5025692,31.3727697 96.9697661,31.8989569 95.9803209,31.8989569 C95.6359463,31.8989569 95.2918871,31.8546613 95.0287185,31.7859323 L95.0287185,31.2222279 C95.2977217,31.3291047 95.6734744,31.4041392 96.0118567,31.4041392 C96.5252648,31.4041392 96.9010176,31.2037845 96.9010176,30.7089668 C96.9010176,29.7327303 94.9658039,30.0765333 94.9658039,28.7117254 C94.9658039,28.0356268 95.5107478,27.5595678 96.4506818,27.5595678 C96.6946137,27.5595678 96.9513177,27.5847894 97.1769583,27.6286121 L97.1769583,28.1483362 L97.1769583,28.1483362 Z" id="Shape" fill="#000000"></path>
                        <polygon id="Path" fill="#000000" points="90.7838979 31.8426666 90.7838979 27.6159999 91.3604712 27.6159999 91.3604712 31.3539999 93.0514411 31.3539999 93.0514411 31.8426666"></polygon>
                        <polygon id="Path" fill="#000000" points="86.3891115 31.8426666 86.3891115 27.6159999 86.9656848 27.6159999 86.9656848 31.3539999 88.6566546 31.3539999 88.6566546 31.8426666"></polygon>
                        <polygon id="Path" fill="#000000" points="81.4311225 31.8426666 81.4311225 27.6159999 83.823601 27.6159999 83.823601 28.0919999 82.0070277 28.0919999 82.0070277 29.4313332 83.6732777 29.4313332 83.6732777 29.8953332 82.0070277 29.8953332 82.0070277 31.3599999 83.8483208 31.3599999 83.8483208 31.8426666"></polygon>
                        <path d="M78.608178,28.1483362 C78.3830097,28.0855973 78.0883053,28.0356268 77.844058,28.0356268 C77.2805074,28.0356268 76.9861176,28.2733412 76.9861176,28.6680604 C76.9861176,29.594484 78.9341036,29.2689668 78.9341036,30.6653017 C78.9341036,31.3727697 78.4017741,31.8989569 77.4124859,31.8989569 C77.0677966,31.8989569 76.7232644,31.8546613 76.4605688,31.7859323 L76.4605688,31.2222279 C76.7297289,31.3291047 77.1054817,31.4041392 77.4435494,31.4041392 C77.9572722,31.4041392 78.3330249,31.2037845 78.3330249,30.7089668 C78.3330249,29.7327303 76.3978118,30.0765333 76.3978118,28.7117254 C76.3978118,28.0356268 76.9425981,27.5595678 77.8820591,27.5595678 C78.1263057,27.5595678 78.3833251,27.5847894 78.6083356,27.6286121 L78.6083356,28.1483362 L78.608178,28.1483362 Z" id="Path" fill="#000000"></path>
                        <polygon id="Path" fill="#000000" points="71.5271535 31.8426666 71.5271535 27.6159999 73.919632 27.6159999 73.919632 28.0919999 72.1030587 28.0919999 72.1030587 29.4313332 73.7693087 29.4313332 73.7693087 29.8953332 72.1030587 29.8953332 72.1030587 31.3599999 73.9443518 31.3599999 73.9443518 31.8426666"></polygon>
                        <path d="M68.7611834,31.6546194 C68.3415957,31.8109938 67.8278723,31.8991121 67.3646066,31.8991121 C66.0429283,31.8991121 65.2663515,31.1035258 65.2663515,29.8137524 C65.2663515,28.5052204 66.0429283,27.5597229 67.53979,27.5597229 C67.9034013,27.5597229 68.2914532,27.6221466 68.6172211,27.7096342 L68.6172211,28.2733387 C68.2599174,28.1295751 67.8466366,28.054383 67.483656,28.054383 C66.3437828,28.054383 65.8802019,28.8558017 65.8802019,29.7325701 C65.8802019,30.784314 66.4628316,31.3978313 67.4459703,31.3978313 C67.7277449,31.3978313 67.9656853,31.3538509 68.1914836,31.2851219 L68.1914836,29.688117 L68.7613411,29.688117 L68.7613411,31.6546194 L68.7611834,31.6546194 Z M62.3377504,31.8423633 L60.7719824,29.362915 C60.4714433,28.8868559 60.3525522,28.6680579 60.2208889,28.3921958 L60.2084321,28.3921958 C60.2335033,28.8682549 60.2645663,29.9075456 60.2645663,30.6588362 L60.2645663,31.8423633 L59.701016,31.8423633 L59.701016,27.6158411 L60.358544,27.6158411 L61.8367993,29.9449052 C62.1061177,30.3706786 62.2939153,30.7026588 62.4129641,30.9534569 L62.4254208,30.9534569 C62.3940424,30.4085111 62.3692866,29.4630136 62.3692866,28.6803534 L62.3692866,27.6156835 L62.9328369,27.6156835 L62.9328369,31.8423633 L62.3377504,31.8423633 Z" id="Shape" fill="#000000"></path>
                        <polygon id="Path" fill="#000000" points="54.6668949 31.8426666 54.6668949 27.6159999 57.0600414 27.6159999 57.0600414 28.0919999 55.2434681 28.0919999 55.2434681 29.4313332 56.9097181 29.4313332 56.9097181 29.8953332 55.2434681 29.8953332 55.2434681 31.3599999 57.0847612 31.3599999 57.0847612 31.8426666"></polygon>
                        <polygon id="Path" fill="#000000" points="51.1179316 31.8426666 51.1179316 30.2926666 51.1179316 27.6159999 51.6938367 27.6159999 51.6938367 31.8426666"></polygon>
                        <polygon id="Path" fill="#000000" points="47.6939022 28.0979999 47.6939022 31.8426666 47.1173289 31.8426666 47.1173289 28.0979999 45.9020486 28.0979999 45.9020486 27.6159999 48.9151953 27.6159999 48.9151953 28.0979999"></polygon>
                        <polygon id="Path" fill="#000000" points="43.8001942 31.8426666 42.0404097 29.7513332 42.0404097 31.8426666 41.4638364 31.8426666 41.4638364 27.6159999 42.0404097 27.6159999 42.0404097 29.6073332 43.7373925 27.6159999 44.4328882 27.6159999 42.6604097 29.6386666 44.5391167 31.8426666"></polygon>
                        <path d="M38.8608489,31.8423643 L38.5164745,30.8342855 L36.7190738,30.8342855 L36.3683922,31.8423643 L35.7797707,31.8423643 L37.2952386,27.6158422 L37.9966017,27.6158422 L39.5060777,31.8423643 L38.8608489,31.8423643 Z M37.8026547,28.7555467 C37.7335906,28.5492019 37.6772987,28.3485319 37.6206913,28.1607881 L37.6145418,28.1607881 C37.5647147,28.3485319 37.5021155,28.5493595 37.4393586,28.7493989 L36.8633515,30.3771427 L38.3786618,30.3771427 L37.8026547,28.7555467 Z" id="Shape" fill="#000000"></path>
                        <path d="M151.717568,16.0788182 L146.752838,8.0917441 C145.863519,6.66734992 145.371398,5.73320214 144.903875,4.68240407 L144.856886,4.68240407 C144.973255,6.27042383 145.0912,9.23586233 145.0912,11.7810447 L145.0912,16.0788182 L142.140681,16.0788182 L142.140681,0.31527094 L145.605712,0.31527094 L150.265803,7.78813816 C151.085584,9.072552 151.717568,10.263488 152.161596,11.2444535 L152.209216,11.2444535 C152.092375,9.51661114 151.974903,6.73749773 151.974903,4.14549766 L151.974903,0.31527094 L154.926052,0.31527094 L154.926052,16.0788182 L151.717568,16.0788182 Z" id="Path" fill="#4C5356"></path>
                        <polygon id="Path" fill="#4C5356" points="128.420837 16.078667 128.420837 0.315333327 137.950665 0.315333327 137.950665 2.86066671 131.464049 2.86066671 131.464049 6.76066678 137.434889 6.76066678 137.434889 9.1893335 131.464049 9.1893335 131.464049 13.4633336 138.021484 13.4633336 138.021484 16.078667"></polygon>
                        <path d="M123.739828,15.3313108 C122.170117,15.9612221 120.226862,16.3119611 118.330911,16.3119611 C113.13234,16.3119611 110.346282,13.2293994 110.346282,8.53548792 C110.346282,3.53844345 113.413169,0.0819704433 119.126725,0.0819704433 C120.461175,0.0819704433 121.936908,0.292098528 123.107213,0.619034499 L123.107213,3.58478828 C121.818963,3.04788186 120.297345,2.79077841 118.9394,2.79077841 C115.192437,2.79077841 113.647483,5.26612823 113.647483,8.20839431 C113.647483,11.5245717 115.402782,13.5793501 118.681592,13.5793501 C119.43089,13.5793501 120.086211,13.4863452 120.695331,13.2998625 L120.695331,7.81162583 L123.73967,7.81162583 L123.73967,15.3313108 L123.739828,15.3313108 Z M105.265658,16.0788182 L104.188069,12.7161383 L98.2411461,12.7161383 L97.1411665,16.0788182 L94.0731753,16.0788182 L99.3655662,0.315270935 L103.322245,0.315270935 L108.637184,16.0788182 L105.265658,16.0788182 Z M101.870638,5.38309378 C101.61283,4.56559622 101.402011,3.77158634 101.238181,3.02439419 L101.191034,3.02439419 C101.027204,3.77158634 100.816385,4.5890839 100.58223,5.35929082 L98.9442439,10.3104634 L103.509727,10.3104634 L101.870638,5.38309378 Z M89.4391012,16.0788182 L85.6692741,16.0788182 L83.2575502,7.46135981 C83.0468885,6.62084748 82.859722,5.54640409 82.7424077,4.58908387 L82.6955763,4.58908387 C82.5549252,5.59306419 82.4147471,6.62084748 82.2037707,7.46135981 L79.8390352,16.0788182 L76.0458712,16.0788182 L72.0887199,0.315270935 L75.3434046,0.315270935 L77.4504899,8.93225639 C77.7548137,10.4033106 77.9656324,11.6647097 78.1297781,12.855961 L78.1764511,12.855961 C78.3405968,11.6647097 78.5745947,10.3571234 78.9259069,8.97907412 L81.3139792,0.315270935 L84.3581605,0.315270935 L86.816558,9.07270959 C87.144534,10.240158 87.4488571,11.5945619 87.6360243,12.855961 L87.6830127,12.855961 C87.846843,11.6413797 88.0340102,10.3571234 88.2919756,9.11952733 L90.3760395,0.315270935 L93.373074,0.315270935 L89.4391012,16.0788182 Z M68.9284858,3.02455181 C68.0623465,2.76744835 66.9383994,2.58080795 66.001777,2.58080795 C64.2690252,2.58080795 63.3790761,3.28133999 63.3790761,4.40212821 C63.3790761,7.27503467 70.2399208,6.27073909 70.2399208,11.4548969 C70.2399208,14.2806703 68.0856833,16.3354487 64.2223518,16.3354487 C62.9110801,16.3354487 61.5763141,16.1716655 60.5460292,15.8921778 L60.5460292,12.9959412 C61.5763141,13.3928674 63.0752256,13.6969462 64.3393507,13.6969462 C65.8849357,13.6969462 66.9853884,13.113222 66.9853884,11.7351727 C66.9853884,8.69911358 60.2183691,9.81990175 60.2183691,4.68271935 C60.2183691,1.95058133 62.4194321,0.0589556644 66.1892592,0.0589556644 C67.055556,0.0589556644 68.0856833,0.175605914 68.9284858,0.339073899 L68.9284858,3.02455181 Z" id="Shape" fill="#4C5356"></path>
                        <polygon id="Path" fill="#4C5356" points="54.693622 16.078667 49.1677386 8.51200015 49.1677386 16.078667 46.1238595 16.078667 46.1238595 0.315333327 49.1677386 0.315333327 49.1677386 7.46133347 54.5065531 0.315333327 58.1123072 0.315333327 52.2817687 7.83466681 58.4871132 16.078667"></polygon>
                        <polygon id="Path" fill="#4C5356" points="34.3932975 16.078667 34.3932975 0.315333327 37.437845 0.315333327 37.437845 13.4400002 43.197565 13.4400002 43.197565 16.078667"></polygon>
                        <path d="M23.2026961,16.3352911 C18.4492576,16.3352911 15.9440287,13.4396851 15.9440287,8.48867018 C15.9440287,3.02455181 19.5031945,0.0586403956 23.6945018,0.0586403956 C28.4477827,0.0586403956 30.953327,2.95424639 30.953327,7.90478843 C30.9534847,13.3692221 27.3940034,16.3352911 23.2026961,16.3352911 Z M23.4368513,2.79077839 C20.9551167,2.79077839 19.1988705,4.65907389 19.1988705,8.11507375 C19.1988705,11.5013988 20.603962,13.6026795 23.4368513,13.6026795 C25.9187435,13.6026795 27.6983265,11.7346993 27.6983265,8.25505407 C27.6983265,4.89268965 26.2935503,2.79077839 23.4368513,2.79077839 Z M9.27240581,16.0788182 L5.31525425,16.0788182 L0,0.315270935 L3.37168358,0.315270935 L6.41586462,9.74975394 C6.72003046,10.800552 7.09499483,12.1552713 7.3523295,13.252887 L7.39900294,13.252887 C7.6568107,12.1784437 8.00796533,10.8473698 8.35927764,9.70356681 L11.42648,0.315270935 L14.5643233,0.315270935 L9.27240581,16.0788182 Z" id="Shape" fill="#4C5356"></path>
                    </g>
                </g>
            </g>
        </g>
    </g>
</svg>