<svg xmlns="http://www.w3.org/2000/svg" width="64" height="84" viewBox="0 0 64 84">
  <g fill="none" fill-rule="evenodd" transform="translate(0 2)">
    <path fill="#004666" fill-rule="nonzero" d="M18.83,68 L16.02,64.66 L16.02,68 L15.1,68 L15.1,61.25 L16.02,61.25 L16.02,64.43 L18.73,61.25 L19.84,61.25 L17.01,64.48 L20.01,68 L18.83,68 Z M23.92,65.51 C23.92,64.9299971 23.7983346,64.4816682 23.555,64.165 C23.3116655,63.8483317 22.9733355,63.69 22.54,63.69 C22.3266656,63.69 22.1333342,63.7283329 21.96,63.805 C21.7866658,63.8816671 21.638334,63.9966659 21.515,64.15 C21.3916661,64.3033341 21.296667,64.4949989 21.23,64.725 C21.163333,64.9550012 21.13,65.2199985 21.13,65.52 C21.13,66.1000029 21.2516655,66.5466651 21.495,66.86 C21.7383346,67.1733349 22.0799978,67.33 22.52,67.33 C22.720001,67.33 22.9049992,67.2933337 23.075,67.22 C23.2450009,67.1466663 23.3933327,67.0350007 23.52,66.885 C23.6466673,66.7349993 23.7449997,66.5450012 23.815,66.315 C23.8850004,66.0849989 23.92,65.8166682 23.92,65.51 Z M24.85,65.44 C24.85,65.8133352 24.7983339,66.161665 24.695,66.485 C24.5916662,66.808335 24.4366677,67.0899988 24.23,67.33 C24.0233323,67.5700012 23.7683349,67.756666 23.465,67.89 C23.1616652,68.023334 22.8200019,68.09 22.44,68.09 C22.0999983,68.09 21.7916681,68.0383339 21.515,67.935 C21.238332,67.8316662 21.0016677,67.6766677 20.805,67.47 C20.6083324,67.2633323 20.4583339,67.0033349 20.355,66.69 C20.2516662,66.3766651 20.2,66.0100021 20.2,65.59 C20.2,65.2166648 20.2516662,64.8683349 20.355,64.545 C20.4583339,64.221665 20.6133323,63.94 20.82,63.7 C21.0266677,63.4599988 21.2816652,63.273334 21.585,63.14 C21.8883349,63.006666 22.2333314,62.94 22.62,62.94 C22.9600017,62.94 23.2666653,62.9916662 23.54,63.095 C23.8133347,63.1983338 24.0483324,63.3533323 24.245,63.56 C24.4416677,63.7666677 24.5916662,64.0266651 24.695,64.34 C24.7983339,64.6533349 24.85,65.0199979 24.85,65.44 Z M29.26,68 L29.26,64.8 C29.26,64.4266648 29.1966673,64.1466676 29.07,63.96 C28.9433327,63.7733324 28.7233349,63.68 28.41,63.68 C28.209999,63.68 28.0233342,63.7283329 27.85,63.825 C27.6766658,63.9216671 27.5266673,64.0583324 27.4,64.235 C27.2733327,64.4116676 27.1750004,64.6183322 27.105,64.855 C27.0349997,65.0916678 27,65.3466653 27,65.62 L27,68 L26.1,68 L26.1,63.03 L26.97,63.03 C26.97,63.2033342 26.9633334,63.3866657 26.95,63.58 C26.9366666,63.7733343 26.9166668,63.94 26.89,64.08 L26.91,64.08 C27.0566674,63.7266649 27.2816652,63.4483344 27.585,63.245 C27.8883348,63.0416656 28.2466646,62.94 28.66,62.94 C28.9333347,62.94 29.1683324,62.9799996 29.365,63.06 C29.5616677,63.1400004 29.7183328,63.251666 29.835,63.395 C29.9516673,63.5383341 30.0349998,63.704999 30.085,63.895 C30.1350003,64.0850009 30.16,64.2966655 30.16,64.53 L30.16,68 L29.26,68 Z M31.48,68 L31.48,67.36 L33.86,63.81 C33.7066659,63.8166667 33.5133345,63.8216666 33.28,63.825 C33.0466655,63.8283334 32.8033346,63.83 32.55,63.83 L31.53,63.83 L31.53,63.03 L34.91,63.03 L34.91,63.66 L32.56,67.19 C32.6466671,67.19 32.7699992,67.1883333 32.93,67.185 C33.0900008,67.1816666 33.2583324,67.1783334 33.435,67.175 C33.6116676,67.1716667 33.7699993,67.17 33.91,67.17 L34.96,67.17 L34.96,68 L31.48,68 Z M39.08,65.02 C39.1000001,64.5666644 39.0083344,64.2200012 38.805,63.98 C38.6016657,63.7399988 38.3200018,63.62 37.96,63.62 C37.6199983,63.62 37.3350012,63.7416654 37.105,63.985 C36.8749989,64.2283345 36.7433335,64.5733311 36.71,65.02 L39.08,65.02 Z M39.98,65.03 C39.98,65.2233343 39.9700001,65.4299989 39.95,65.65 L36.7,65.65 C36.7066667,66.2233362 36.8349988,66.6533319 37.085,66.94 C37.3350013,67.2266681 37.7166641,67.37 38.23,67.37 C38.4766679,67.37 38.7299987,67.3466669 38.99,67.3 C39.2500013,67.2533331 39.5066654,67.1900004 39.76,67.11 L39.76,67.84 C39.5133321,67.9133337 39.2483348,67.9733331 38.965,68.02 C38.6816653,68.0666669 38.4033347,68.09 38.13,68.09 C37.3566628,68.09 36.7716687,67.8800021 36.375,67.46 C35.9783314,67.0399979 35.78,66.3900044 35.78,65.51 C35.78,65.1433315 35.8299995,64.8050016 35.93,64.495 C36.0300005,64.1849984 36.1749991,63.9133345 36.365,63.68 C36.555001,63.4466655 36.7899986,63.2650006 37.07,63.135 C37.3500014,63.0049993 37.6633316,62.94 38.01,62.94 C38.343335,62.94 38.6349988,62.9933328 38.885,63.1 C39.1350013,63.2066672 39.3416659,63.3549991 39.505,63.545 C39.6683342,63.7350009 39.788333,63.9549988 39.865,64.205 C39.9416671,64.4550012 39.98,64.7299985 39.98,65.03 Z M43.77,63.83 C43.2433307,63.7433329 42.8500013,63.8833315 42.59,64.25 C42.3299987,64.6166685 42.2,65.199996 42.2,66 L42.2,68 L41.3,68 L41.3,63.03 L42.17,63.03 C42.17,63.2033342 42.1616668,63.394999 42.145,63.605 C42.1283333,63.8150011 42.1000002,64.0166657 42.06,64.21 L42.08,64.21 C42.1333336,64.0233324 42.2066662,63.8500008 42.3,63.69 C42.3933338,63.5299992 42.5083326,63.3900006 42.645,63.27 C42.7816674,63.1499994 42.9449991,63.0583337 43.135,62.995 C43.325001,62.9316664 43.5366655,62.9133332 43.77,62.94 L43.77,63.83 Z M48.01,68 L48.01,64.8 C48.01,64.4266648 47.9466673,64.1466676 47.82,63.96 C47.6933327,63.7733324 47.4733349,63.68 47.16,63.68 C46.959999,63.68 46.7733342,63.7283329 46.6,63.825 C46.4266658,63.9216671 46.2766673,64.0583324 46.15,64.235 C46.0233327,64.4116676 45.9250003,64.6183322 45.855,64.855 C45.7849996,65.0916678 45.75,65.3466653 45.75,65.62 L45.75,68 L44.85,68 L44.85,63.03 L45.72,63.03 C45.72,63.2033342 45.7133334,63.3866657 45.7,63.58 C45.6866666,63.7733343 45.6666668,63.94 45.64,64.08 L45.66,64.08 C45.8066674,63.7266649 46.0316651,63.4483344 46.335,63.245 C46.6383348,63.0416656 46.9966646,62.94 47.41,62.94 C47.6833347,62.94 47.9183323,62.9799996 48.115,63.06 C48.3116676,63.1400004 48.4683327,63.251666 48.585,63.395 C48.7016672,63.5383341 48.7849997,63.704999 48.835,63.895 C48.8850002,64.0850009 48.91,64.2966655 48.91,64.53 L48.91,68 L48.01,68 Z M10.035,74.61 C10.035,73.743329 9.82333545,73.0866689 9.4,72.64 C8.97666455,72.1933311 8.331671,71.97 7.465,71.97 C7.3183326,71.97 7.1350011,71.9733333 6.915,71.98 C6.6949989,71.9866667 6.5416671,71.9933333 6.455,72 L6.455,77.2 C6.5750006,77.2200001 6.71666585,77.235 6.88,77.245 C7.04333415,77.2550001 7.1983326,77.26 7.345,77.26 C7.745002,77.26 8.10999835,77.2066672 8.44,77.1 C8.77000165,76.9933328 9.05333215,76.8316678 9.29,76.615 C9.52666785,76.3983322 9.70999935,76.1216683 9.84,75.785 C9.97000065,75.4483317 10.035,75.0566689 10.035,74.61 Z M11.005,74.55 C11.005,75.1166695 10.9150009,75.6183312 10.735,76.055 C10.5549991,76.4916688 10.2966683,76.8583318 9.96,77.155 C9.62333165,77.4516682 9.2250023,77.6733326 8.765,77.82 C8.3049977,77.9666674 7.7983361,78.04 7.245,78.04 C7.0049988,78.04 6.6983352,78.0333334 6.325,78.02 C5.9516648,78.0066666 5.6883341,78 5.535,78 L5.535,71.26 C5.9016685,71.2533333 6.2549983,71.2450001 6.595,71.235 C6.9350017,71.2249999 7.2549985,71.22 7.555,71.22 C8.1016694,71.22 8.5883312,71.2849993 9.015,71.415 C9.4416688,71.5450006 9.80333185,71.7466653 10.1,72.02 C10.3966681,72.2933347 10.6216659,72.6399979 10.775,73.06 C10.9283341,73.4800021 11.005,73.9766638 11.005,74.55 Z M14.915,75.77 L14.325,75.77 C14.0849988,75.77 13.8716676,75.7849998 13.685,75.815 C13.4983324,75.8450002 13.3400007,75.893333 13.21,75.96 C13.0799994,76.026667 12.981667,76.1116662 12.915,76.215 C12.848333,76.3183339 12.815,76.4466659 12.815,76.6 C12.815,76.8266678 12.8849993,77.0133326 13.025,77.16 C13.1650007,77.3066674 13.3483322,77.38 13.575,77.38 C13.7616676,77.38 13.9399992,77.3383338 14.11,77.255 C14.2800009,77.1716663 14.4266661,77.0533341 14.55,76.9 C14.673334,76.7466659 14.7649997,76.5816675 14.825,76.405 C14.8850003,76.2283324 14.915,76.0466676 14.915,75.86 L14.915,75.77 Z M14.945,78 C14.945,77.8066657 14.9516666,77.6316675 14.965,77.475 C14.9783334,77.3183326 14.9949999,77.1766673 15.015,77.05 L14.995,77.05 C14.8683327,77.3633349 14.6566682,77.614999 14.36,77.805 C14.0633319,77.995001 13.7250019,78.09 13.345,78.09 C12.9183312,78.09 12.5750013,77.9650013 12.315,77.715 C12.0549987,77.4649988 11.925,77.1333354 11.925,76.72 C11.925,76.2066641 12.1299979,75.816668 12.54,75.55 C12.950002,75.283332 13.5583293,75.15 14.365,75.15 L14.915,75.15 L14.915,74.82 C14.915,74.3999979 14.8266675,74.0983342 14.65,73.915 C14.4733324,73.7316658 14.1916686,73.64 13.805,73.64 C13.5783322,73.64 13.3300013,73.6683331 13.06,73.725 C12.7899986,73.781667 12.5316679,73.8599995 12.285,73.96 L12.285,73.22 C12.4983344,73.1466663 12.7499985,73.0816669 13.04,73.025 C13.3300014,72.968333 13.6183319,72.94 13.905,72.94 C14.2716685,72.94 14.5766655,72.9833329 14.82,73.07 C15.0633346,73.1566671 15.2549993,73.2749993 15.395,73.425 C15.5350007,73.5750008 15.6399997,73.754999 15.71,73.965 C15.7800004,74.175001 15.815,74.4333318 15.815,74.74 L15.815,78 L14.945,78 Z M19.925,77.98 C19.7649992,78.0133335 19.6083341,78.0383332 19.455,78.055 C19.3016659,78.0716667 19.1516674,78.08 19.005,78.08 C18.7449987,78.08 18.5283342,78.0516669 18.355,77.995 C18.1816658,77.938333 18.0433338,77.8516672 17.94,77.735 C17.8366661,77.6183328 17.7616669,77.465001 17.715,77.275 C17.6683331,77.084999 17.645,76.8500014 17.645,76.57 L17.645,73.73 L16.645,73.73 L16.645,73.03 L17.645,73.03 L17.645,71.42 L18.545,71.17 L18.545,73.03 L19.925,73.03 L19.925,73.73 L18.545,73.73 L18.545,76.35 C18.545,76.5433343 18.5549999,76.7016661 18.575,76.825 C18.5950001,76.948334 18.6316664,77.0466663 18.685,77.12 C18.7383336,77.1933337 18.8066662,77.2449998 18.89,77.275 C18.9733338,77.3050001 19.081666,77.32 19.215,77.32 C19.4350011,77.32 19.6716654,77.2900003 19.925,77.23 L19.925,77.98 Z M23.995,75.02 C24.0150001,74.5666644 23.9233343,74.2200012 23.72,73.98 C23.5166657,73.7399988 23.2350018,73.62 22.875,73.62 C22.5349983,73.62 22.2500012,73.7416654 22.02,73.985 C21.7899988,74.2283345 21.6583335,74.5733311 21.625,75.02 L23.995,75.02 Z M24.895,75.03 C24.895,75.2233343 24.8850001,75.4299989 24.865,75.65 L21.615,75.65 C21.6216667,76.2233362 21.7499987,76.6533319 22,76.94 C22.2500012,77.2266681 22.6316641,77.37 23.145,77.37 C23.3916679,77.37 23.6449987,77.3466669 23.905,77.3 C24.1650013,77.2533331 24.4216654,77.1900004 24.675,77.11 L24.675,77.84 C24.4283321,77.9133337 24.1633347,77.9733331 23.88,78.02 C23.5966652,78.0666669 23.3183347,78.09 23.045,78.09 C22.2716628,78.09 21.6866687,77.8800021 21.29,77.46 C20.8933314,77.0399979 20.695,76.3900044 20.695,75.51 C20.695,75.1433315 20.7449995,74.8050016 20.845,74.495 C20.9450005,74.1849984 21.0899991,73.9133345 21.28,73.68 C21.4700009,73.4466655 21.7049986,73.2650007 21.985,73.135 C22.2650014,73.0049993 22.5783316,72.94 22.925,72.94 C23.258335,72.94 23.5499988,72.9933328 23.8,73.1 C24.0500013,73.2066672 24.2566658,73.3549991 24.42,73.545 C24.5833341,73.7350009 24.7033329,73.9549988 24.78,74.205 C24.856667,74.4550012 24.895,74.7299985 24.895,75.03 Z M29.375,78 L29.375,74.8 C29.375,74.4266648 29.3116673,74.1466676 29.185,73.96 C29.0583327,73.7733324 28.8383349,73.68 28.525,73.68 C28.324999,73.68 28.1383342,73.7283329 27.965,73.825 C27.7916658,73.9216672 27.6416673,74.0583324 27.515,74.235 C27.3883327,74.4116676 27.2900003,74.6183322 27.22,74.855 C27.1499996,75.0916678 27.115,75.3466653 27.115,75.62 L27.115,78 L26.215,78 L26.215,73.03 L27.085,73.03 C27.085,73.2033342 27.0783334,73.3866657 27.065,73.58 C27.0516666,73.7733343 27.0316668,73.94 27.005,74.08 L27.025,74.08 C27.1716674,73.7266649 27.3966652,73.4483343 27.7,73.245 C28.0033349,73.0416656 28.3616646,72.94 28.775,72.94 C29.0483347,72.94 29.2833324,72.9799996 29.48,73.06 C29.6766676,73.1400004 29.8333327,73.251666 29.95,73.395 C30.0666673,73.5383341 30.1499997,73.704999 30.2,73.895 C30.2500002,74.0850009 30.275,74.2966655 30.275,74.53 L30.275,78 L29.375,78 Z M34.875,76.58 C34.875,76.7933344 34.8333337,76.9899991 34.75,77.17 C34.6666662,77.3500009 34.5416675,77.5099993 34.375,77.65 C34.2083325,77.7900007 34.0000012,77.8983329 33.75,77.975 C33.4999988,78.051667 33.2116683,78.09 32.885,78.09 C32.6649989,78.09 32.4566676,78.0783335 32.26,78.055 C32.0633324,78.0316665 31.8750009,78.0000002 31.695,77.96 L31.695,77.16 C31.8883343,77.2200003 32.0933323,77.2699998 32.31,77.31 C32.5266678,77.3500002 32.7383323,77.37 32.945,77.37 C33.278335,77.37 33.5283325,77.308334 33.695,77.185 C33.8616675,77.061666 33.945,76.8866678 33.945,76.66 C33.945,76.4866658 33.8950005,76.3500005 33.795,76.25 C33.6949995,76.1499995 33.5883339,76.0733336 33.475,76.02 C33.3616661,75.9666664 33.1600014,75.8883338 32.87,75.785 C32.5799985,75.6816661 32.3516675,75.5766672 32.185,75.47 C32.0183325,75.3633328 31.8816672,75.2233342 31.775,75.05 C31.6683328,74.8766658 31.615,74.6533347 31.615,74.38 C31.615,73.9599979 31.781665,73.6150014 32.115,73.345 C32.448335,73.0749986 32.9283302,72.94 33.555,72.94 C33.7150008,72.94 33.8783325,72.9466666 34.045,72.96 C34.2116675,72.9733334 34.3649993,72.9933332 34.505,73.02 L34.505,73.78 C34.3649993,73.7333331 34.2033343,73.6983335 34.02,73.675 C33.8366658,73.6516666 33.6616675,73.64 33.495,73.64 C33.1816651,73.64 32.9433341,73.6983327 32.78,73.815 C32.6166659,73.9316673 32.535,74.0933323 32.535,74.3 C32.535,74.4666675 32.5866661,74.6033328 32.69,74.71 C32.7933338,74.8166672 32.9533323,74.9116662 33.17,74.995 C33.3866678,75.0783337 33.5883324,75.153333 33.775,75.22 C33.9616676,75.286667 34.1383325,75.3733328 34.305,75.48 C34.4716675,75.5866672 34.6083328,75.7283324 34.715,75.905 C34.8216672,76.0816675 34.875,76.3066653 34.875,76.58 Z M39.285,77.89 C39.0383321,77.956667 38.815001,78.0049999 38.615,78.035 C38.414999,78.0650002 38.2016678,78.08 37.975,78.08 C37.641665,78.08 37.3433347,78.0366671 37.08,77.95 C36.8166654,77.8633329 36.5866677,77.725001 36.39,77.535 C36.1933323,77.344999 36.0416672,77.0950016 35.935,76.785 C35.8283328,76.4749985 35.775,76.1000022 35.775,75.66 C35.775,75.259998 35.8249995,74.893335 35.925,74.56 C36.0250005,74.226665 36.1766657,73.9383346 36.38,73.695 C36.5833344,73.4516655 36.8366652,73.2666673 37.14,73.14 C37.4433348,73.0133327 37.7883314,72.95 38.175,72.95 C38.3550009,72.95 38.5333325,72.9649998 38.71,72.995 C38.8866675,73.0250001 39.0649991,73.0666664 39.245,73.12 L39.245,73.95 C39.0583324,73.8699996 38.8766676,73.8100002 38.7,73.77 C38.5233324,73.7299998 38.3383343,73.71 38.145,73.71 C37.9183322,73.71 37.7150009,73.7516662 37.535,73.835 C37.3549991,73.9183338 37.203334,74.0433325 37.08,74.21 C36.9566661,74.3766675 36.866667,74.5749989 36.81,74.805 C36.7533331,75.0350011 36.725,75.2866653 36.725,75.56 C36.725,75.8200013 36.7483331,76.0533323 36.795,76.26 C36.8416669,76.4666677 36.9183328,76.6483325 37.025,76.805 C37.1316672,76.9616674 37.2766658,77.0833329 37.46,77.17 C37.6433342,77.2566671 37.868332,77.3 38.135,77.3 C38.5016685,77.3 38.884998,77.2433339 39.285,77.13 L39.285,77.89 Z M43.645,78 L43.645,74.8 C43.645,74.4266648 43.5816673,74.1466676 43.455,73.96 C43.3283327,73.7733324 43.1083349,73.68 42.795,73.68 C42.594999,73.68 42.4083342,73.7283329 42.235,73.825 C42.0616658,73.9216672 41.9116673,74.0583324 41.785,74.235 C41.6583327,74.4116676 41.5600004,74.6183322 41.49,74.855 C41.4199997,75.0916678 41.385,75.3466653 41.385,75.62 L41.385,78 L40.485,78 L40.485,70.7 L41.385,70.7 L41.385,73.06 C41.385,73.2466676 41.3783334,73.4266658 41.365,73.6 C41.3516666,73.7733342 41.3283335,73.9233327 41.295,74.05 L41.315,74.06 C41.4616674,73.7133316 41.6849985,73.440001 41.985,73.24 C42.2850015,73.039999 42.6383313,72.94 43.045,72.94 C43.3183347,72.94 43.5533323,72.9799996 43.75,73.06 C43.9466676,73.1400004 44.1033327,73.251666 44.22,73.395 C44.3366672,73.5383341 44.4199997,73.704999 44.47,73.895 C44.5200002,74.0850009 44.545,74.2966655 44.545,74.53 L44.545,78 L43.645,78 Z M49.415,78 C49.415,77.8266658 49.4216666,77.6433343 49.435,77.45 C49.4483334,77.2566657 49.4683332,77.0900007 49.495,76.95 L49.475,76.95 C49.3283326,77.3033351 49.1033348,77.5816657 48.8,77.785 C48.4966651,77.9883344 48.1383354,78.09 47.725,78.09 C47.4516653,78.09 47.2183343,78.0500004 47.025,77.97 C46.8316657,77.8899996 46.6766673,77.778334 46.56,77.635 C46.4433328,77.4916659 46.3600003,77.325001 46.31,77.135 C46.2599998,76.9449991 46.235,76.7333345 46.235,76.5 L46.235,73.03 L47.125,73.03 L47.125,76.23 C47.125,76.6033352 47.1883327,76.8833324 47.315,77.07 C47.4416673,77.2566676 47.6616651,77.35 47.975,77.35 C48.175001,77.35 48.3616658,77.3016672 48.535,77.205 C48.7083342,77.1083328 48.8583327,76.9716676 48.985,76.795 C49.1116673,76.6183324 49.2099997,76.4116679 49.28,76.175 C49.3500004,75.9383322 49.385,75.6833347 49.385,75.41 L49.385,73.03 L50.285,73.03 L50.285,78 L49.415,78 Z M54.485,77.98 C54.3249992,78.0133335 54.1683341,78.0383332 54.015,78.055 C53.8616659,78.0716667 53.7116674,78.08 53.565,78.08 C53.3049987,78.08 53.0883342,78.0516669 52.915,77.995 C52.7416658,77.938333 52.6033339,77.8516672 52.5,77.735 C52.3966662,77.6183328 52.3216669,77.465001 52.275,77.275 C52.2283331,77.084999 52.205,76.8500014 52.205,76.57 L52.205,73.73 L51.205,73.73 L51.205,73.03 L52.205,73.03 L52.205,71.42 L53.105,71.17 L53.105,73.03 L54.485,73.03 L54.485,73.73 L53.105,73.73 L53.105,76.35 C53.105,76.5433343 53.1149999,76.7016661 53.135,76.825 C53.1550001,76.948334 53.1916664,77.0466663 53.245,77.12 C53.2983336,77.1933337 53.3666663,77.2449998 53.45,77.275 C53.5333337,77.3050001 53.641666,77.32 53.775,77.32 C53.9950011,77.32 54.2316654,77.2900003 54.485,77.23 L54.485,77.98 Z M55.325,78 L55.325,77.36 L57.705,73.81 C57.5516659,73.8166667 57.3583345,73.8216666 57.125,73.825 C56.8916655,73.8283333 56.6483346,73.83 56.395,73.83 L55.375,73.83 L55.375,73.03 L58.755,73.03 L58.755,73.66 L56.405,77.19 C56.4916671,77.19 56.6149992,77.1883333 56.775,77.185 C56.9350008,77.1816666 57.1033325,77.1783334 57.28,77.175 C57.4566676,77.1716666 57.6149993,77.17 57.755,77.17 L58.805,77.17 L58.805,78 L55.325,78 Z"/>
    <path fill="#8DBFCF" d="M22.8057374,12.0564042 C24.6707378,15.8678181 27.6899909,17.9385447 31.8634966,18.2685839 C31.8696259,18.2996441 31.8634966,51.6590499 31.8634966,55.5416622 C11.4344416,32.9984467 11.4655208,19.8216289 12.229901,18.2685839 C12.7394878,17.2332207 16.2647666,15.1624941 22.8057374,12.0564042 Z"/>
    <path fill="#C6DFE7" d="M42.6719581,12.0564042 C44.5369585,15.8678181 47.5562116,17.9385447 51.7297174,18.2685839 C51.7358466,18.2996441 51.7297174,51.6590499 51.7297174,55.5416622 C31.3006624,32.9984467 31.3317416,19.8216289 32.0961218,18.2685839 C32.6057086,17.2332207 36.1309874,15.1624941 42.6719581,12.0564042 Z" transform="matrix(-1 0 0 1 83.599 0)"/>
    <ellipse cx="31.772" cy="7.878" fill="#335F7D" rx="7.76" ry="7.878"/>
  </g>
</svg>
