<svg xmlns="http://www.w3.org/2000/svg" width="232" height="48" viewBox="0 0 232 48">
  <g fill="none">
    <polygon fill="#000000" points="181.585 42.147 181.585 47.764 180.723 47.764 180.723 42.147 178.903 42.147 178.903 41.424 183.412 41.424 183.412 42.147"/>
    <polygon fill="#000000" points="174.078 42.138 174.078 44.204 176.609 44.204 176.609 44.899 174.078 44.899 174.078 47.764 173.215 47.764 173.215 41.424 176.769 41.424 176.769 42.138"/>
    <path fill="#000000" d="M169.525445,47.7635468 L169.009286,46.2514286 L166.319691,46.2514286 L165.793856,47.7635468 L164.912822,47.7635468 L167.181607,41.4237635 L168.231154,41.4237635 L170.490734,47.7635468 L169.525445,47.7635468 Z M167.941331,43.1333202 C167.837721,42.823803 167.753701,42.522798 167.668973,42.2411823 L167.66024,42.2411823 C167.585188,42.522798 167.490783,42.8240394 167.397558,43.1240985 L166.534698,45.5657143 L168.803483,45.5657143 L167.941331,43.1333202 Z"/>
    <polygon fill="#000000" points="161.251 47.764 161.251 44.843 158.026 44.843 158.026 47.764 157.164 47.764 157.164 41.424 158.026 41.424 158.026 44.11 161.251 44.11 161.251 41.424 162.113 41.424 162.113 47.764"/>
    <path fill="#000000" d="M153.70767 47.5852611C153.19222 47.7358818 152.610922 47.8387389 151.992334 47.8387389 150.014315 47.8387389 149.161131 46.5614187 149.161131 44.7400197 149.161131 42.8141084 150.126185 41.3677241 152.207105 41.3677241 152.695178 41.3677241 153.200952 41.4429163 153.632383 41.5838424L153.632383 42.4386207C153.1259 42.2225025 152.601009 42.1097143 152.095235 42.1097143 150.688366 42.1097143 150.088423 43.2366502 150.088423 44.645202 150.088423 46.185931 150.773095 47.0688473 152.15117 47.0688473 152.61989 47.0688473 153.220069 46.9652808 153.707434 46.8153695L153.707434 47.5852611 153.70767 47.5852611zM145.451963 42.2225025C145.113994 42.1283941 144.673831 42.0534384 144.308012 42.0534384 143.464269 42.0534384 143.023398 42.4100099 143.023398 43.0020887 143.023398 44.3917241 145.939329 43.9034483 145.939329 45.9979507 145.939329 47.0591527 145.141843 47.8484335 143.660867 47.8484335 143.145416 47.8484335 142.630437 47.7819901 142.236533 47.6788966L142.236533 46.8333399C142.63917 46.9936552 143.201587 47.1062069 143.708069 47.1062069 144.476525 47.1062069 145.038942 46.8056749 145.038942 46.0634483 145.038942 44.5990936 142.142364 45.114798 142.142364 43.0675862 142.142364 42.0534384 142.958022 41.3393498 144.364891 41.3393498 144.730002 41.3393498 145.11423 41.3771823 145.451963 41.4429163L145.451963 42.2225025 145.451963 42.2225025z"/>
    <polygon fill="#000000" points="135.883 47.764 135.883 41.424 136.746 41.424 136.746 47.031 139.277 47.031 139.277 47.764"/>
    <polygon fill="#000000" points="129.305 47.764 129.305 41.424 130.168 41.424 130.168 47.031 132.699 47.031 132.699 47.764"/>
    <polygon fill="#000000" points="121.884 47.764 121.884 41.424 125.465 41.424 125.465 42.138 122.746 42.138 122.746 44.147 125.24 44.147 125.24 44.843 122.746 44.843 122.746 47.04 125.502 47.04 125.502 47.764"/>
    <path fill="#000000" d="M117.658694,42.2225025 C117.321668,42.1283941 116.880562,42.0534384 116.514979,42.0534384 C115.671471,42.0534384 115.230836,42.4100099 115.230836,43.0020887 C115.230836,44.3917241 118.146531,43.9034483 118.146531,45.9979507 C118.146531,47.0591527 117.349754,47.8484335 115.869013,47.8484335 C115.353091,47.8484335 114.837404,47.7819901 114.444208,47.6788966 L114.444208,46.8333399 C114.84708,46.9936552 115.409497,47.1062069 115.915508,47.1062069 C116.684435,47.1062069 117.246852,46.8056749 117.246852,46.0634483 C117.246852,44.5990936 114.350275,45.114798 114.350275,43.0675862 C114.350275,42.0534384 115.165697,41.3393498 116.571858,41.3393498 C116.93744,41.3393498 117.32214,41.3771823 117.65893,41.4429163 L117.65893,42.2225025 L117.658694,42.2225025 Z"/>
    <polygon fill="#000000" points="107.06 47.764 107.06 41.424 110.641 41.424 110.641 42.138 107.922 42.138 107.922 44.147 110.416 44.147 110.416 44.843 107.922 44.843 107.922 47.04 110.678 47.04 110.678 47.764"/>
    <path fill="#000000" d="M102.919967 47.481931C102.291939 47.7164926 101.523011 47.84867 100.829607 47.84867 98.851353 47.84867 97.6889929 46.6552906 97.6889929 44.7206305 97.6889929 42.7578325 98.851353 41.3395862 101.091817 41.3395862 101.636061 41.3395862 102.216887 41.4332217 102.704488 41.5644532L102.704488 42.4100099C102.169685 42.1943645 101.551097 42.0815764 101.007797 42.0815764 99.3016643 42.0815764 98.6077884 43.2837044 98.6077884 44.5988571 98.6077884 46.1764729 99.4798535 47.0967488 100.95139 47.0967488 101.373143 47.0967488 101.729286 47.0307783 102.067255 46.9276847L102.067255 44.5321773 102.920203 44.5321773 102.920203 47.481931 102.919967 47.481931zM93.3055381 47.7635468L90.9619369 44.0443744C90.5120977 43.3302857 90.3341445 43.0020887 90.1370743 42.5882956L90.1184293 42.5882956C90.1559552 43.3023842 90.2024496 44.8613202 90.2024496 45.9882562L90.2024496 47.7635468 89.358942 47.7635468 89.358942 41.4237635 90.3431129 41.4237635 92.5557274 44.9173596C92.9588362 45.5560197 93.2399268 46.0539901 93.418116 46.4301872L93.4367609 46.4301872C93.3897945 45.6127685 93.3527406 44.1945222 93.3527406 43.020532L93.3527406 41.4235271 94.1962482 41.4235271 94.1962482 47.7635468 93.3055381 47.7635468z"/>
    <polygon fill="#000000" points="81.824 47.764 81.824 41.424 85.406 41.424 85.406 42.138 82.687 42.138 82.687 44.147 85.181 44.147 85.181 44.843 82.687 44.843 82.687 47.04 85.443 47.04 85.443 47.764"/>
    <polygon fill="#000000" points="76.512 47.764 76.512 45.439 76.512 41.424 77.374 41.424 77.374 47.764"/>
    <polygon fill="#000000" points="71.387 42.147 71.387 47.764 70.524 47.764 70.524 42.147 68.705 42.147 68.705 41.424 73.215 41.424 73.215 42.147"/>
    <polygon fill="#000000" points="65.559 47.764 62.925 44.627 62.925 47.764 62.062 47.764 62.062 41.424 62.925 41.424 62.925 44.411 65.465 41.424 66.506 41.424 63.853 44.458 66.665 47.764"/>
    <path fill="#000000" d="M58.1659166,47.7635468 L57.6504659,46.2514286 L54.9601628,46.2514286 L54.4352716,47.7635468 L53.554238,47.7635468 L55.8225514,41.4237635 L56.8723337,41.4237635 L59.1316785,47.7635468 L58.1659166,47.7635468 Z M56.5820387,43.1333202 C56.4786653,42.823803 56.394409,42.522798 56.3096806,42.2411823 L56.3004761,42.2411823 C56.2258962,42.522798 56.1321994,42.8240394 56.0382665,43.1240985 L55.1761139,45.5657143 L57.4441913,45.5657143 L56.5820387,43.1333202 Z"/>
    <path fill="#4C5356" d="M227.086934,24.1182266 L219.655854,12.1376158 C218.324745,10.0010246 217.588151,8.59980296 216.888374,7.02360591 L216.818043,7.02360591 C216.99222,9.40563547 217.168757,13.8537931 217.168757,17.6715665 L217.168757,24.1182266 L212.752496,24.1182266 L212.752496,0.472906404 L217.938865,0.472906404 L224.913969,11.6822069 C226.140997,13.6088276 227.086934,15.3952315 227.751544,16.8666798 L227.82282,16.8666798 C227.647935,14.2749163 227.472106,10.1062463 227.472106,6.21824631 L227.472106,0.472906404 L231.88931,0.472906404 L231.88931,24.1182266 L227.086934,24.1182266 Z"/>
    <polygon fill="#4C5356" points="192.217 24.118 192.217 .473 206.481 .473 206.481 4.291 196.772 4.291 196.772 10.141 205.709 10.141 205.709 13.784 196.772 13.784 196.772 20.195 206.587 20.195 206.587 24.118"/>
    <path fill="#4C5356" d="M185.21058 22.9969655C182.861078 23.9418325 179.952464 24.4679409 177.114653 24.4679409 169.333567 24.4679409 165.163467 19.8440985 165.163467 12.8032315 165.163467 5.30766502 169.753904.122955665 178.305807.122955665 180.303178.122955665 182.512016.438147783 184.263699.928551724L184.263699 5.37718227C182.335479 4.57182266 180.057961 4.18616749 178.025424 4.18616749 172.417066 4.18616749 170.104619 7.89919212 170.104619 12.3125911 170.104619 17.2868571 172.731906 20.3690246 177.639544 20.3690246 178.761074 20.3690246 179.741941 20.2295172 180.653656 19.9497931L180.653656 11.7174384 185.210344 11.7174384 185.210344 22.9969655 185.21058 22.9969655zM157.558918 24.1182266L155.94601 19.0742069 147.04481 19.0742069 145.398389 24.1182266 140.806299 24.1182266 148.727813.472906404 154.650067.472906404 162.605331 24.1182266 157.558918 24.1182266zM152.477339 8.07464039C152.091459 6.84839409 151.77591 5.65737931 151.530694 4.53659113L151.460126 4.53659113C151.214909 5.65737931 150.899361 6.88362562 150.548883 8.03893596L148.097188 15.4656946 154.930686 15.4656946 152.477339 8.07464039zM133.870136 24.1182266L128.227556 24.1182266 124.61775 11.1920394C124.302437 9.93127094 124.022291 8.31960591 123.846698 6.88362562L123.776602 6.88362562C123.566079 8.38959606 123.356264 9.93127094 123.04048 11.1920394L119.501005 24.1182266 113.823495 24.1182266 107.900533.472906404 112.772061.472906404 115.925892 13.3983842C116.381396 15.6049655 116.696944 17.497064 116.942633 19.2839409L117.012492 19.2839409C117.258181 17.497064 117.608423 15.5356847 118.134258 13.4686108L121.708663.472906404 126.265115.472906404 129.944781 13.609064C130.435687 15.3602365 130.89119 17.3918424 131.171337 19.2839409L131.241668 19.2839409C131.486885 17.462069 131.767032 15.5356847 132.153148 13.6792906L135.272521.472906404 139.758405.472906404 133.870136 24.1182266zM103.170376 4.53682759C101.873961 4.15117241 100.191666 3.87121182 98.7897538 3.87121182 96.1962157 3.87121182 94.8641628 4.92200985 94.8641628 6.60319212 94.8641628 10.9125517 105.133298 9.40610837 105.133298 17.1823448 105.133298 21.4210049 101.908891 24.5031724 96.1263561 24.5031724 94.1636785 24.5031724 92.1658352 24.2574975 90.6237314 23.838266L90.6237314 19.4939113C92.1658352 20.0893005 94.4093672 20.5454187 96.3014771 20.5454187 98.6148688 20.5454187 100.261998 19.6698325 100.261998 17.6027586 100.261998 13.04867 90.1332981 14.7298522 90.1332981 7.02407882 90.1332981 2.92587192 93.4277925.0884334975 99.0703723.0884334975 100.367023.0884334975 101.908891.263408867 103.170376.508610837L103.170376 4.53682759z"/>
    <polygon fill="#4C5356" points="81.864 24.118 73.593 12.768 73.593 24.118 69.037 24.118 69.037 .473 73.593 .473 73.593 11.192 81.584 .473 86.981 .473 78.254 11.752 87.542 24.118"/>
    <polygon fill="#4C5356" points="51.479 24.118 51.479 .473 56.036 .473 56.036 20.16 64.657 20.16 64.657 24.118"/>
    <path fill="#4C5356" d="M34.7291963 24.502936C27.6143723 24.502936 23.8646104 20.1595271 23.8646104 12.7330049 23.8646104 4.53682759 29.1918779.0879605911 35.4653184.0879605911 42.5799064.0879605911 46.3301404 4.43136946 46.3301404 11.8571823 46.3303764 20.0538325 41.0026368 24.502936 34.7291963 24.502936zM35.0796745 4.18616749C31.3650783 4.18616749 28.7363744 6.98861084 28.7363744 12.1726108 28.7363744 17.2520985 30.8394791 20.4040197 35.0796745 20.4040197 38.7945066 20.4040197 41.4581404 17.6020493 41.4581404 12.3825813 41.4581404 7.33903448 39.3555076 4.18616749 35.0796745 4.18616749zM13.8786979 24.1182266L7.9557355 24.1182266 0 .472906404 5.04664903.472906404 9.60310071 14.6246305C10.0583683 16.2008276 10.6196053 18.2329064 11.0047772 19.87933L11.0746368 19.87933C11.4605168 18.267665 11.986116 16.2710542 12.5119512 14.5553498L17.1028606.472906404 21.7995036.472906404 13.8786979 24.1182266z"/>
  </g>
</svg>
